{
  "accessors": [
    {
      "bufferView": 1,
      "componentType": 5126,
      "count": 65532,
      "max": [
        33.8390007019043,
        6.054999828338623,
        64.56999969482422
      ],
      "min": [
        -4.288579940795898,
        -24.57699966430664,
        31.976999282836914
      ],
      "type": "VEC3"
    },
    {
      "bufferView": 1,
      "byteOffset": 786384,
      "componentType": 5126,
      "count": 65532,
      "max": [
        1.0,
        1.0,
        1.0
      ],
      "min": [
        -1.0,
        -1.0,
        -1.0
      ],
      "type": "VEC3"
    },
    {
      "bufferView": 2,
      "componentType": 5126,
      "count": 65532,
      "max": [
        0.9803921580314636,
        0.9803921580314636,
        0.9803921580314636,
        0.0
      ],
      "min": [
        0.0,
        0.11372549086809158,
        0.1764705926179886,
        0.0
      ],
      "type": "VEC4"
    },
    {
      "bufferView": 0,
      "componentType": 5125,
      "count": 185118,
      "type": "SCALAR"
    },
    {
      "bufferView": 1,
      "byteOffset": 1572768,
      "componentType": 5126,
      "count": 65532,
      "max": [
        54.417999267578125,
        9.0,
        64.56999969482422
      ],
      "min": [
        -51.0,
        -44.400001525878906,
        0.0
      ],
      "type": "VEC3"
    },
    {
      "bufferView": 1,
      "byteOffset": 2359152,
      "componentType": 5126,
      "count": 65532,
      "max": [
        1.0,
        1.0,
        1.0
      ],
      "min": [
        -1.0,
        -1.0,
        -1.0
      ],
      "type": "VEC3"
    },
    {
      "bufferView": 2,
      "byteOffset": 1048512,
      "componentType": 5126,
      "count": 65532,
      "max": [
        0.9803921580314636,
        0.9803921580314636,
        0.9803921580314636,
        0.0
      ],
      "min": [
        0.16862745583057404,
        0.11372549086809158,
        0.1764705926179886,
        0.0
      ],
      "type": "VEC4"
    },
    {
      "bufferView": 0,
      "byteOffset": 740472,
      "componentType": 5125,
      "count": 168159,
      "type": "SCALAR"
    },
    {
      "bufferView": 1,
      "byteOffset": 3145536,
      "componentType": 5126,
      "count": 65532,
      "max": [
        40.93299865722656,
        5.302999973297119,
        63.95500183105469
      ],
      "min": [
        -15.788000106811523,
        -24.57699966430664,
        32.21099853515625
      ],
      "type": "VEC3"
    },
    {
      "bufferView": 1,
      "byteOffset": 3931920,
      "componentType": 5126,
      "count": 65532,
      "max": [
        1.0,
        1.0,
        1.0
      ],
      "min": [
        -1.0,
        -1.0,
        -1.0
      ],
      "type": "VEC3"
    },
    {
      "bufferView": 2,
      "byteOffset": 2097024,
      "componentType": 5126,
      "count": 65532,
      "max": [
        0.9803921580314636,
        0.9803921580314636,
        0.9803921580314636,
        0.0
      ],
      "min": [
        0.16862745583057404,
        0.11372549086809158,
        0.1764705926179886,
        0.0
      ],
      "type": "VEC4"
    },
    {
      "bufferView": 0,
      "byteOffset": 1413108,
      "componentType": 5125,
      "count": 176931,
      "type": "SCALAR"
    },
    {
      "bufferView": 1,
      "byteOffset": 4718304,
      "componentType": 5126,
      "count": 65532,
      "max": [
        41.499000549316406,
        5.802000045776367,
        67.31300354003906
      ],
      "min": [
        -34.04399871826172,
        -25.003000259399414,
        31.976999282836914
      ],
      "type": "VEC3"
    },
    {
      "bufferView": 1,
      "byteOffset": 5504688,
      "componentType": 5126,
      "count": 65532,
      "max": [
        1.0,
        1.0,
        1.0
      ],
      "min": [
        -1.0,
        -1.0,
        -1.0
      ],
      "type": "VEC3"
    },
    {
      "bufferView": 2,
      "byteOffset": 3145536,
      "componentType": 5126,
      "count": 65532,
      "max": [
        0.9803921580314636,
        0.9803921580314636,
        0.9803921580314636,
        0.0
      ],
      "min": [
        0.0,
        0.11372549086809158,
        0.1764705926179886,
        0.0
      ],
      "type": "VEC4"
    },
    {
      "bufferView": 0,
      "byteOffset": 2120832,
      "componentType": 5125,
      "count": 180120,
      "type": "SCALAR"
    },
    {
      "bufferView": 1,
      "byteOffset": 6291072,
      "componentType": 5126,
      "count": 65534,
      "max": [
        47.439998626708984,
        8.272000312805176,
        66.96600341796875
      ],
      "min": [
        -35.465999603271484,
        -42.54499816894531,
        31.976999282836914
      ],
      "type": "VEC3"
    },
    {
      "bufferView": 1,
      "byteOffset": 7077480,
      "componentType": 5126,
      "count": 65534,
      "max": [
        1.0,
        1.0,
        1.0
      ],
      "min": [
        -1.0,
        -1.0,
        -1.0
      ],
      "type": "VEC3"
    },
    {
      "bufferView": 2,
      "byteOffset": 4194048,
      "componentType": 5126,
      "count": 65534,
      "max": [
        1.0,
        0.9803921580314636,
        0.9803921580314636,
        0.0
      ],
      "min": [
        0.16862745583057404,
        0.10196078568696976,
        0.10196078568696976,
        0.0
      ],
      "type": "VEC4"
    },
    {
      "bufferView": 0,
      "byteOffset": 2841312,
      "componentType": 5125,
      "count": 184998,
      "type": "SCALAR"
    },
    {
      "bufferView": 1,
      "byteOffset": 7863888,
      "componentType": 5126,
      "count": 65532,
      "max": [
        48.236000061035156,
        5.802000045776367,
        63.439998626708984
      ],
      "min": [
        -34.04399871826172,
        -42.749000549316406,
        31.976999282836914
      ],
      "type": "VEC3"
    },
    {
      "bufferView": 1,
      "byteOffset": 8650272,
      "componentType": 5126,
      "count": 65532,
      "max": [
        1.0,
        1.0,
        1.0
      ],
      "min": [
        -1.0,
        -1.0,
        -1.0
      ],
      "type": "VEC3"
    },
    {
      "bufferView": 2,
      "byteOffset": 5242592,
      "componentType": 5126,
      "count": 65532,
      "max": [
        1.0,
        0.9803921580314636,
        0.9803921580314636,
        0.0
      ],
      "min": [
        0.0,
        0.11372549086809158,
        0.10196078568696976,
        0.0
      ],
      "type": "VEC4"
    },
    {
      "bufferView": 0,
      "byteOffset": 3581304,
      "componentType": 5125,
      "count": 185793,
      "type": "SCALAR"
    },
    {
      "bufferView": 1,
      "byteOffset": 9436656,
      "componentType": 5126,
      "count": 65532,
      "max": [
        47.354000091552734,
        7.401000022888184,
        64.0739974975586
      ],
      "min": [
        -49.6510009765625,
        -24.57699966430664,
        31.976999282836914
      ],
      "type": "VEC3"
    },
    {
      "bufferView": 1,
      "byteOffset": 10223040,
      "componentType": 5126,
      "count": 65532,
      "max": [
        1.0,
        1.0,
        1.0
      ],
      "min": [
        -1.0,
        -1.0,
        -1.0
      ],
      "type": "VEC3"
    },
    {
      "bufferView": 2,
      "byteOffset": 6291104,
      "componentType": 5126,
      "count": 65532,
      "max": [
        0.9803921580314636,
        0.9803921580314636,
        0.9803921580314636,
        0.0
      ],
      "min": [
        0.0,
        0.11372549086809158,
        0.1764705926179886,
        0.0
      ],
      "type": "VEC4"
    },
    {
      "bufferView": 0,
      "byteOffset": 4324476,
      "componentType": 5125,
      "count": 186417,
      "type": "SCALAR"
    },
    {
      "bufferView": 1,
      "byteOffset": 11009424,
      "componentType": 5126,
      "count": 65533,
      "max": [
        54.417999267578125,
        9.0,
        63.439998626708984
      ],
      "min": [
        -51.0,
        -26.176000595092773,
        0.0
      ],
      "type": "VEC3"
    },
    {
      "bufferView": 1,
      "byteOffset": 11795820,
      "componentType": 5126,
      "count": 65533,
      "max": [
        1.0,
        1.0,
        1.0
      ],
      "min": [
        -1.0,
        -1.0,
        -1.0
      ],
      "type": "VEC3"
    },
    {
      "bufferView": 2,
      "byteOffset": 7339616,
      "componentType": 5126,
      "count": 65533,
      "max": [
        1.0,
        0.9803921580314636,
        0.9803921580314636,
        0.0
      ],
      "min": [
        0.16862745583057404,
        0.10196078568696976,
        0.10196078568696976,
        0.0
      ],
      "type": "VEC4"
    },
    {
      "bufferView": 0,
      "byteOffset": 5070144,
      "componentType": 5125,
      "count": 183132,
      "type": "SCALAR"
    },
    {
      "bufferView": 1,
      "byteOffset": 12582216,
      "componentType": 5126,
      "count": 65532,
      "max": [
        48.84600067138672,
        5.313000202178955,
        63.439998626708984
      ],
      "min": [
        -31.52199935913086,
        -25.003000259399414,
        31.976999282836914
      ],
      "type": "VEC3"
    },
    {
      "bufferView": 1,
      "byteOffset": 13368600,
      "componentType": 5126,
      "count": 65532,
      "max": [
        1.0,
        1.0,
        1.0
      ],
      "min": [
        -1.0,
        -1.0,
        -1.0
      ],
      "type": "VEC3"
    },
    {
      "bufferView": 2,
      "byteOffset": 8388144,
      "componentType": 5126,
      "count": 65532,
      "max": [
        1.0,
        0.9803921580314636,
        0.9803921580314636,
        0.0
      ],
      "min": [
        0.16862745583057404,
        0.10196078568696976,
        0.10196078568696976,
        0.0
      ],
      "type": "VEC4"
    },
    {
      "bufferView": 0,
      "byteOffset": 5802672,
      "componentType": 5125,
      "count": 172662,
      "type": "SCALAR"
    },
    {
      "bufferView": 1,
      "byteOffset": 14154984,
      "componentType": 5126,
      "count": 65532,
      "max": [
        40.619998931884766,
        5.313000202178955,
        57.95500183105469
      ],
      "min": [
        -31.74799919128418,
        -25.003000259399414,
        32.380001068115234
      ],
      "type": "VEC3"
    },
    {
      "bufferView": 1,
      "byteOffset": 14941368,
      "componentType": 5126,
      "count": 65532,
      "max": [
        1.0,
        1.0,
        1.0
      ],
      "min": [
        -1.0,
        -1.0,
        -1.0
      ],
      "type": "VEC3"
    },
    {
      "bufferView": 2,
      "byteOffset": 9436656,
      "componentType": 5126,
      "count": 65532,
      "max": [
        0.9137254953384399,
        0.886274516582489,
        0.9019607901573181,
        0.0
      ],
      "min": [
        0.0,
        0.11372549086809158,
        0.1764705926179886,
        0.0
      ],
      "type": "VEC4"
    },
    {
      "bufferView": 0,
      "byteOffset": 6493320,
      "componentType": 5125,
      "count": 190002,
      "type": "SCALAR"
    },
    {
      "bufferView": 1,
      "byteOffset": 15727752,
      "componentType": 5126,
      "count": 65532,
      "max": [
        40.619998931884766,
        7.401000022888184,
        67.31300354003906
      ],
      "min": [
        -35.465999603271484,
        -25.003000259399414,
        31.976999282836914
      ],
      "type": "VEC3"
    },
    {
      "bufferView": 1,
      "byteOffset": 16514136,
      "componentType": 5126,
      "count": 65532,
      "max": [
        1.0,
        1.0,
        1.0
      ],
      "min": [
        -1.0,
        -1.0,
        -1.0
      ],
      "type": "VEC3"
    },
    {
      "bufferView": 2,
      "byteOffset": 10485168,
      "componentType": 5126,
      "count": 65532,
      "max": [
        0.9803921580314636,
        0.9803921580314636,
        0.9803921580314636,
        0.0
      ],
      "min": [
        0.0,
        0.11372549086809158,
        0.1764705926179886,
        0.0
      ],
      "type": "VEC4"
    },
    {
      "bufferView": 0,
      "byteOffset": 7253328,
      "componentType": 5125,
      "count": 180525,
      "type": "SCALAR"
    },
    {
      "bufferView": 1,
      "byteOffset": 17300520,
      "componentType": 5126,
      "count": 65532,
      "max": [
        41.05500030517578,
        3.5239999294281006,
        67.31300354003906
      ],
      "min": [
        -30.85300064086914,
        -25.003000259399414,
        32.01100158691406
      ],
      "type": "VEC3"
    },
    {
      "bufferView": 1,
      "byteOffset": 18086904,
      "componentType": 5126,
      "count": 65532,
      "max": [
        1.0,
        1.0,
        1.0
      ],
      "min": [
        -1.0,
        -1.0,
        -1.0
      ],
      "type": "VEC3"
    },
    {
      "bufferView": 2,
      "byteOffset": 11533680,
      "componentType": 5126,
      "count": 65532,
      "max": [
        0.9803921580314636,
        0.9803921580314636,
        0.9803921580314636,
        0.0
      ],
      "min": [
        0.0,
        0.10196078568696976,
        0.12941177189350128,
        0.0
      ],
      "type": "VEC4"
    },
    {
      "bufferView": 0,
      "byteOffset": 7975428,
      "componentType": 5125,
      "count": 177609,
      "type": "SCALAR"
    },
    {
      "bufferView": 1,
      "byteOffset": 18873288,
      "componentType": 5126,
      "count": 7592,
      "max": [
        40.87900161743164,
        4.205999851226807,
        66.76899719238281
      ],
      "min": [
        -49.6510009765625,
        -25.003000259399414,
        31.976999282836914
      ],
      "type": "VEC3"
    },
    {
      "bufferView": 1,
      "byteOffset": 18964392,
      "componentType": 5126,
      "count": 7592,
      "max": [
        1.0,
        1.0,
        1.0
      ],
      "min": [
        -1.0,
        -1.0,
        -1.0
      ],
      "type": "VEC3"
    },
    {
      "bufferView": 2,
      "byteOffset": 12582192,
      "componentType": 5126,
      "count": 7592,
      "max": [
        0.9803921580314636,
        0.9803921580314636,
        0.9803921580314636,
        0.0
      ],
      "min": [
        0.16862745583057404,
        0.10196078568696976,
        0.12941177189350128,
        0.0
      ],
      "type": "VEC4"
    },
    {
      "bufferView": 0,
      "byteOffset": 8685864,
      "componentType": 5125,
      "count": 18204,
      "type": "SCALAR"
    }
  ],
  "asset": {
    "extras": {
      "author": "3242 (https://sketchfab.com/tysonle52)",
      "license": "CC-BY-4.0 (http://creativecommons.org/licenses/by/4.0/)",
      "source": "https://sketchfab.com/3d-models/full-desktop-setup-official-final-8c9b9d7619b5445b85bc6e780f0e7605",
      "title": "FULL DESKTOP SETUP (official Final)"
    },
    "generator": "Sketchfab-15.45.0",
    "version": "2.0"
  },
  "bufferViews": [
    {
      "buffer": 0,
      "byteLength": 8758680,
      "name": "floatBufferViews",
      "target": 34963
    },
    {
      "buffer": 0,
      "byteLength": 19055496,
      "byteOffset": 8758680,
      "byteStride": 12,
      "name": "floatBufferViews",
      "target": 34962
    },
    {
      "buffer": 0,
      "byteLength": 12703664,
      "byteOffset": 27814176,
      "byteStride": 16,
      "name": "floatBufferViews",
      "target": 34962
    }
  ],
  "buffers": [
    {
      "byteLength": 40517840,
      "uri": "scene.bin"
    }
  ],
  "materials": [
    {
      "name": "lambert2SG.001",
      "pbrMetallicRoughness": {
        "metallicFactor": 0.5,
        "roughnessFactor": 0.5
      }
    }
  ],
  "meshes": [
    {
      "name": "Object_0",
      "primitives": [
        {
          "attributes": {
            "COLOR_0": 2,
            "NORMAL": 1,
            "POSITION": 0
          },
          "indices": 3,
          "material": 0,
          "mode": 4
        }
      ]
    },
    {
      "name": "Object_1",
      "primitives": [
        {
          "attributes": {
            "COLOR_0": 6,
            "NORMAL": 5,
            "POSITION": 4
          },
          "indices": 7,
          "material": 0,
          "mode": 4
        }
      ]
    },
    {
      "name": "Object_2",
      "primitives": [
        {
          "attributes": {
            "COLOR_0": 10,
            "NORMAL": 9,
            "POSITION": 8
          },
          "indices": 11,
          "material": 0,
          "mode": 4
        }
      ]
    },
    {
      "name": "Object_3",
      "primitives": [
        {
          "attributes": {
            "COLOR_0": 14,
            "NORMAL": 13,
            "POSITION": 12
          },
          "indices": 15,
          "material": 0,
          "mode": 4
        }
      ]
    },
    {
      "name": "Object_4",
      "primitives": [
        {
          "attributes": {
            "COLOR_0": 18,
            "NORMAL": 17,
            "POSITION": 16
          },
          "indices": 19,
          "material": 0,
          "mode": 4
        }
      ]
    },
    {
      "name": "Object_5",
      "primitives": [
        {
          "attributes": {
            "COLOR_0": 22,
            "NORMAL": 21,
            "POSITION": 20
          },
          "indices": 23,
          "material": 0,
          "mode": 4
        }
      ]
    },
    {
      "name": "Object_6",
      "primitives": [
        {
          "attributes": {
            "COLOR_0": 26,
            "NORMAL": 25,
            "POSITION": 24
          },
          "indices": 27,
          "material": 0,
          "mode": 4
        }
      ]
    },
    {
      "name": "Object_7",
      "primitives": [
        {
          "attributes": {
            "COLOR_0": 30,
            "NORMAL": 29,
            "POSITION": 28
          },
          "indices": 31,
          "material": 0,
          "mode": 4
        }
      ]
    },
    {
      "name": "Object_8",
      "primitives": [
        {
          "attributes": {
            "COLOR_0": 34,
            "NORMAL": 33,
            "POSITION": 32
          },
          "indices": 35,
          "material": 0,
          "mode": 4
        }
      ]
    },
    {
      "name": "Object_9",
      "primitives": [
        {
          "attributes": {
            "COLOR_0": 38,
            "NORMAL": 37,
            "POSITION": 36
          },
          "indices": 39,
          "material": 0,
          "mode": 4
        }
      ]
    },
    {
      "name": "Object_10",
      "primitives": [
        {
          "attributes": {
            "COLOR_0": 42,
            "NORMAL": 41,
            "POSITION": 40
          },
          "indices": 43,
          "material": 0,
          "mode": 4
        }
      ]
    },
    {
      "name": "Object_11",
      "primitives": [
        {
          "attributes": {
            "COLOR_0": 46,
            "NORMAL": 45,
            "POSITION": 44
          },
          "indices": 47,
          "material": 0,
          "mode": 4
        }
      ]
    },
    {
      "name": "Object_12",
      "primitives": [
        {
          "attributes": {
            "COLOR_0": 50,
            "NORMAL": 49,
            "POSITION": 48
          },
          "indices": 51,
          "material": 0,
          "mode": 4
        }
      ]
    }
  ],
  "nodes": [
    {
      "children": [
        1
      ],
      "matrix": [
        1.0,
        0.0,
        0.0,
        0.0,
        0.0,
        2.220446049250313e-16,
        -1.0,
        0.0,
        0.0,
        1.0,
        2.220446049250313e-16,
        0.0,
        0.0,
        0.0,
        0.0,
        1.0
      ],
      "name": "Sketchfab_model"
    },
    {
      "children": [
        2
      ],
      "name": "root"
    },
    {
      "children": [
        3
      ],
      "matrix": [
        1.0,
        0.0,
        0.0,
        0.0,
        0.0,
        2.220446049250313e-16,
        1.0,
        0.0,
        0.0,
        -1.0,
        2.220446049250313e-16,
        0.0,
        0.0,
        0.0,
        0.0,
        1.0
      ],
      "name": "GLTF_SceneRootNode"
    },
    {
      "children": [
        4
      ],
      "matrix": [
        1.0,
        0.0,
        0.0,
        0.0,
        0.0,
        2.220446049250313e-16,
        -1.0,
        0.0,
        0.0,
        1.0,
        2.220446049250313e-16,
        0.0,
        0.0,
        0.0,
        0.0,
        1.0
      ],
      "name": "_1"
    },
    {
      "children": [
        5,
        6,
        7,
        8,
        9,
        10,
        11,
        12,
        13,
        14,
        15,
        16,
        17
      ],
      "name": "Mesh_Mesh_head_geo.001_lambert2SG.001_0"
    },
    {
      "mesh": 0,
      "name": "Object_5"
    },
    {
      "mesh": 1,
      "name": "Object_6"
    },
    {
      "mesh": 2,
      "name": "Object_7"
    },
    {
      "mesh": 3,
      "name": "Object_8"
    },
    {
      "mesh": 4,
      "name": "Object_9"
    },
    {
      "mesh": 5,
      "name": "Object_10"
    },
    {
      "mesh": 6,
      "name": "Object_11"
    },
    {
      "mesh": 7,
      "name": "Object_12"
    },
    {
      "mesh": 8,
      "name": "Object_13"
    },
    {
      "mesh": 9,
      "name": "Object_14"
    },
    {
      "mesh": 10,
      "name": "Object_15"
    },
    {
      "mesh": 11,
      "name": "Object_16"
    },
    {
      "mesh": 12,
      "name": "Object_17"
    }
  ],
  "scene": 0,
  "scenes": [
    {
      "name": "Sketchfab_Scene",
      "nodes": [
        0
      ]
    }
  ]
}
